<svg width="14" height="15" viewBox="0 0 14 15" fill="white" xmlns="http://www.w3.org/2000/svg">
<path d="M11.9453 5.7204C11.9453 5.7204 11.5638 10.4534 11.3424 12.4471C11.237 13.3993 10.6488 13.9573 9.68531 13.9749C7.85184 14.0079 6.01626 14.01 4.1835 13.9714C3.25657 13.9524 2.67821 13.3874 2.57491 12.452C2.35214 10.4408 1.97266 5.7204 1.97266 5.7204" stroke="#32325D" stroke-opacity="0.8" stroke-width="1.05412" stroke-linecap="round" stroke-linejoin="round"/>
<path d="M12.9172 3.4519H1" stroke="#32325D" stroke-opacity="0.8" stroke-width="1.05412" stroke-linecap="round" stroke-linejoin="round"/>
<path d="M10.6206 3.45188C10.069 3.45188 9.59392 3.06185 9.4857 2.52143L9.31493 1.66691C9.20951 1.27267 8.85252 1 8.44563 1H5.4709C5.06401 1 4.70702 1.27267 4.60161 1.66691L4.43083 2.52143C4.32261 3.06185 3.84756 3.45188 3.2959 3.45188" stroke="#32325D" stroke-opacity="0.8" stroke-width="1.05412" stroke-linecap="round" stroke-linejoin="round"/>
</svg>
